#!OML:ASF F:\VICON\USERDATA\INSTALL\Justin_Nancy\Justin_Nancy.ASF
:FULLY-SPECIFIED
:DEGREES
269
root -16.577 16.8956 23.4925 -5.01208 -38.8554 9.25124
lowerback 6.07539 -1.65391 -7.13811
upperback 0.0784253 -2.66075 1.43818
thorax -2.93669 -1.21682 5.73386
lowerneck -16.1616 -2.88838 -9.64707
upperneck 22.1844 -2.55617 4.06033
head 9.90909 -1.5752 2.69082
rclavicle 1.67973e-014 -1.11319e-014
rhumerus -46.5341 -28.9359 -61.7848
rradius 21.5658
rwrist 17.1818
rhand -12.4359 11.8822
rfingers 7.12502
rthumb 13.637 -17.6511
lclavicle 1.67973e-014 -1.11319e-014
lhumerus -21.4569 4.92897 83.3971
lradius 36.4372
lwrist -7.08878
lhand -19.0372 24.6523
lfingers 7.12502
lthumb 7.26927 54.5074
rfemur -27.2749 1.91513 11.328
rtibia 8.0188
rfoot -3.27808 -11.0663
rtoes -22.5677
lfemur 12.5337 -5.09737 -30.0984
ltibia 20.7485
lfoot -16.3752 -8.4435
ltoes -12.1004
270
root -16.7543 16.875 23.6715 -4.70798 -39.153 8.45983
lowerback 6.0894 -1.68103 -6.50775
upperback 0.111597 -2.64556 1.67369
thorax -2.92848 -1.21835 5.62293
lowerneck -16.0228 -2.74641 -9.62157
upperneck 22.2361 -2.3374 3.87903
head 9.8828 -1.49625 2.65273
rclavicle 2.44505e-014 -1.35174e-014
rhumerus -46.5527 -28.6238 -61.7467
rradius 21.4632
rwrist 17.3925
rhand -12.1767 10.4609
rfingers 7.12502
rthumb 13.8868 -19.0555
lclavicle 2.44505e-014 -1.35174e-014
lhumerus -21.6039 5.61138 83.3049
lradius 36.7814
lwrist -7.0325
lhand -19.3867 24.4481
lfingers 7.12502
lthumb 6.93182 54.3146
rfemur -27.3964 2.0363 12.2658
rtibia 9.73218
rfoot -3.43053 -10.2946
rtoes -20.2491
lfemur 13.0618 -5.45226 -29.5887
ltibia 21.7046
lfoot -15.6888 -8.3538
ltoes -15.0867
271
root -16.9341 16.8682 23.8486 -4.50389 -39.3396 7.91306
lowerback 5.98024 -1.71668 -6.08582
upperback 0.196071 -2.65007 1.85652
thorax -2.78836 -1.23351 5.56871
lowerneck -16.1999 -2.74748 -9.63752
upperneck 22.4209 -2.27876 3.71607
head 9.97736 -1.4924 2.60668
rclavicle -4.80065e-014 -1.35174e-014
rhumerus -47.2058 -31.632 -58.9263
rradius 19.9641
rwrist 21.6787
rhand -11.8289 10.8093
rfingers 7.12502
rthumb 14.2219 -18.6838
lclavicle -4.80065e-014 -1.35174e-014
lhumerus -21.6092 6.29133 83.2473
lradius 36.9577
lwrist -7.40869
lhand -20.2766 23.6934
lfingers 7.12502
lthumb 6.07273 53.5864
rfemur -27.59 2.03172 12.9384
rtibia 11.939
rfoot -4.46718 -9.34256
rtoes -15.7335
lfemur 13.4056 -5.86548 -29.2588
ltibia 22.8221
lfoot -14.7364 -8.6751
ltoes -15.8765
272
root -17.1209 16.859 24.0294 -4.72955 -39.2981 7.98564
lowerback 5.91453 -1.66346 -6.0389
upperback 0.26678 -2.57348 1.75893
thorax -2.6951 -1.20174 5.42926
lowerneck -16.0831 -2.88908 -9.95013
upperneck 22.4492 -2.50723 4.11411
head 9.99166 -1.58079 2.77042
rclavicle -7.8023e-014 -4.77083e-015
rhumerus -46.5099 -16.6602 -70.6133
rradius 28.0106
rwrist 3.60876
rhand -12.6244 3.67871
rfingers 7.12502
rthumb 13.4552 -25.8667
lclavicle -7.8023e-014 -4.77083e-015
lhumerus -21.5333 6.26247 83.1415
lradius 37.0367
lwrist -7.46739
lhand -22.3175 22.671
lfingers 7.12502
lthumb 4.10213 52.6112
rfemur -27.8747 0.0898905 13.9403
rtibia 14.3152
rfoot -4.84094 -6.87861
rtoes -18.6855
lfemur 13.6651 -6.216 -29.3572
ltibia 24.1221
lfoot -13.3581 -9.60578
ltoes -15.3464
273
root -17.3156 16.8631 24.205 -5.07893 -39.2986 8.29973
lowerback 6.07245 -1.67938 -6.47571
upperback 0.12438 -2.63657 1.78386
thorax -2.90312 -1.21527 5.71895
lowerneck -15.6592 -2.80763 -10.2642
upperneck 22.4048 -2.39893 4.26845
head 9.89394 -1.54478 2.89319
rclavicle 1.15991e-013 1.90833e-014
rhumerus -46.5136 -18.0365 -69.5688
rradius 26.8242
rwrist 5.21827
rhand -13.2854 3.38675
rfingers 7.12502
rthumb 12.8181 -26.1997
lclavicle 1.15991e-013 1.90833e-014
lhumerus -21.9115 6.57861 83.0655
lradius 37.1955
lwrist -7.18161
lhand -23.6844 21.9697
lfingers 7.12502
lthumb 2.78218 51.9313
rfemur -27.9404 -0.441564 14.1895
rtibia 16.2961
rfoot -4.29744 -5.92425
rtoes -19.3056
lfemur 13.5813 -6.58283 -29.6352
ltibia 25.7591
lfoot -11.3329 -10.4874
ltoes -15.7008
274
root -17.5119 16.8868 24.3541 -4.75113 -39.3364 8.10818
lowerback 6.20885 -1.7792 -6.75536
upperback -0.205456 -2.7986 2.00703
thorax -3.27681 -1.26525 6.14168
lowerneck -16.0695 -2.62756 -9.90951
upperneck 23.1805 -2.05639 3.64364
head 10.2136 -1.44665 2.66564
rclavicle 5.44173e-014 0
rhumerus -46.7044 -18.2338 -69.1189
rradius 26.4945
rwrist 6.00793
rhand -13.2285 4.3647
rfingers 7.12502
rthumb 12.8729 -25.2183
lclavicle 5.44173e-014 0
lhumerus -22.5094 7.28271 82.9422
lradius 37.3818
lwrist -7.21282
lhand -23.3664 22.4678
lfingers 7.12502
lthumb 3.08928 52.4251
rfemur -27.9766 1.29906 13.9029
rtibia 17.5449
rfoot -3.15787 -7.2262
rtoes -11.9223
lfemur 12.6771 -6.60088 -29.1936
ltibia 27.8304
lfoot -9.13085 -11.5543
ltoes -18.6979
275
root -17.7012 16.9081 24.4903 -3.69487 -39.3616 7.04594
lowerback 6.30189 -1.78742 -6.20707
upperback -0.592225 -2.77217 2.28519
thorax -3.74894 -1.22925 6.13893
lowerneck -16.0267 -2.53779 -9.5654
upperneck 23.6632 -1.93255 3.217
head 10.3638 -1.42492 2.47772
rclavicle -1.66979e-014 1.59028e-015
rhumerus -47.1952 -26.1429 -62.9147
rradius 21.8753
rwrist 15.8164
rhand -13.2659 7.59356
rfingers 7.12502
rthumb 12.8369 -21.9917
lclavicle -1.66979e-014 1.59028e-015
lhumerus -23.029 7.48856 82.8544
lradius 37.4422
lwrist -7.56005
lhand -22.2784 23.3691
lfingers 7.12502
lthumb 4.13994 53.3087
rfemur -28.4086 3.0963 14.282
rtibia 18.5379
rfoot -1.43386 -8.60334
rtoes -9.546
lfemur 11.2907 -6.45504 -27.8657
ltibia 30.1332
lfoot -6.4634 -12.825
ltoes -19.8769
276
root -17.893 16.9432 24.6465 -3.03167 -39.3026 6.18685
lowerback 6.33665 -1.79795 -5.64537
upperback -0.846836 -2.73976 2.52459
thorax -4.05311 -1.20426 6.08002
lowerneck -15.1869 -2.46326 -9.85739
upperneck 23.5827 -1.8398 3.17226
head 10.1722 -1.4208 2.52433
rclavicle 4.64659e-014 -2.06736e-014
rhumerus -48.2568 -29.4348 -59.7413
rradius 20.5285
rwrist 19.8829
rhand -13.2301 9.03125
rfingers 7.12502
rthumb 12.8714 -20.5519
lclavicle 4.64659e-014 -2.06736e-014
lhumerus -23.5035 7.92508 82.8358
lradius 37.3485
lwrist -8.26814
lhand -20.8341 23.9033
lfingers 7.12502
lthumb 5.53454 53.811
rfemur -28.6488 3.65172 14.9459
rtibia 19.5235
rfoot 0.866419 -7.88864
rtoes -15.9191
lfemur 9.98551 -6.44583 -26.8428
ltibia 32.6152
lfoot -2.52441 -13.913
ltoes -17.0863
277
root -18.082 16.9763 24.8148 -3.21422 -39.1503 6.24689
lowerback 6.43881 -1.90772 -5.84922
upperback -0.90401 -2.90529 2.6171
thorax -4.13277 -1.27629 6.31555
lowerneck -15.0774 -2.36749 -9.82981
upperneck 23.8851 -1.64476 2.82568
head 10.2461 -1.38097 2.42503
rclavicle 1.18625e-013 2.06736e-014
rhumerus -48.2214 -29.294 -59.676
rradius 20.6057
rwrist 19.6684
rhand -12.8554 9.67197
rfingers 7.12502
rthumb 13.2326 -19.888
lclavicle 1.18625e-013 2.06736e-014
lhumerus -23.8572 8.67069 82.8108
lradius 37.162
lwrist -8.5811
lhand -20.7964 24.1833
lfingers 7.12502
lthumb 5.5709 54.0901
rfemur -28.4265 3.39403 15.0855
rtibia 20.3626
rfoot 2.28693 -5.64712
rtoes -18.9027
lfemur 8.85226 -6.48025 -26.7357
ltibia 35.2189
lfoot 2.15923 -14.4442
ltoes -14.5721
